<mxfile host="65bd71144e">
    <diagram id="lDDEJi_G6nIQGfBchSkx" name="PÃ¡gina-1">
        <mxGraphModel dx="400" dy="176" grid="1" gridSize="10" guides="1" tooltips="1" connect="1" arrows="1" fold="1" page="1" pageScale="1" pageWidth="827" pageHeight="1169" math="0" shadow="0">
            <root>
                <mxCell id="0"/>
                <mxCell id="1" parent="0"/>
                <mxCell id="6" value="produtos" style="shape=table;startSize=40;container=1;collapsible=0;childLayout=tableLayout;fillColor=#b1ddf0;strokeColor=#10739e;rounded=1;" parent="1" vertex="1">
                    <mxGeometry x="160" y="70" width="290" height="290" as="geometry"/>
                </mxCell>
                <mxCell id="7" value="" style="shape=tableRow;horizontal=0;startSize=0;swimlaneHead=0;swimlaneBody=0;strokeColor=inherit;top=0;left=0;bottom=0;right=0;collapsible=0;dropTarget=0;fillColor=none;points=[[0,0.5],[1,0.5]];portConstraint=eastwest;" parent="6" vertex="1">
                    <mxGeometry y="40" width="290" height="41" as="geometry"/>
                </mxCell>
                <mxCell id="8" value="id" style="shape=partialRectangle;html=1;whiteSpace=wrap;connectable=0;strokeColor=inherit;overflow=hidden;fillColor=none;top=0;left=0;bottom=0;right=0;pointerEvents=1;" parent="7" vertex="1">
                    <mxGeometry width="120" height="41" as="geometry">
                        <mxRectangle width="120" height="41" as="alternateBounds"/>
                    </mxGeometry>
                </mxCell>
                <mxCell id="9" value="SERIAL PK" style="shape=partialRectangle;html=1;whiteSpace=wrap;connectable=0;strokeColor=inherit;overflow=hidden;fillColor=none;top=0;left=0;bottom=0;right=0;pointerEvents=1;" parent="7" vertex="1">
                    <mxGeometry x="120" width="170" height="41" as="geometry">
                        <mxRectangle width="170" height="41" as="alternateBounds"/>
                    </mxGeometry>
                </mxCell>
                <mxCell id="10" value="" style="shape=tableRow;horizontal=0;startSize=0;swimlaneHead=0;swimlaneBody=0;strokeColor=inherit;top=0;left=0;bottom=0;right=0;collapsible=0;dropTarget=0;fillColor=none;points=[[0,0.5],[1,0.5]];portConstraint=eastwest;" parent="6" vertex="1">
                    <mxGeometry y="81" width="290" height="43" as="geometry"/>
                </mxCell>
                <mxCell id="11" value="nome" style="shape=partialRectangle;html=1;whiteSpace=wrap;connectable=0;strokeColor=inherit;overflow=hidden;fillColor=none;top=0;left=0;bottom=0;right=0;pointerEvents=1;" parent="10" vertex="1">
                    <mxGeometry width="120" height="43" as="geometry">
                        <mxRectangle width="120" height="43" as="alternateBounds"/>
                    </mxGeometry>
                </mxCell>
                <mxCell id="12" value="VARCHAR ( 100 )" style="shape=partialRectangle;html=1;whiteSpace=wrap;connectable=0;strokeColor=inherit;overflow=hidden;fillColor=none;top=0;left=0;bottom=0;right=0;pointerEvents=1;" parent="10" vertex="1">
                    <mxGeometry x="120" width="170" height="43" as="geometry">
                        <mxRectangle width="170" height="43" as="alternateBounds"/>
                    </mxGeometry>
                </mxCell>
                <mxCell id="13" value="" style="shape=tableRow;horizontal=0;startSize=0;swimlaneHead=0;swimlaneBody=0;strokeColor=inherit;top=0;left=0;bottom=0;right=0;collapsible=0;dropTarget=0;fillColor=none;points=[[0,0.5],[1,0.5]];portConstraint=eastwest;" parent="6" vertex="1">
                    <mxGeometry y="124" width="290" height="41" as="geometry"/>
                </mxCell>
                <mxCell id="14" value="marca" style="shape=partialRectangle;html=1;whiteSpace=wrap;connectable=0;strokeColor=inherit;overflow=hidden;fillColor=none;top=0;left=0;bottom=0;right=0;pointerEvents=1;" parent="13" vertex="1">
                    <mxGeometry width="120" height="41" as="geometry">
                        <mxRectangle width="120" height="41" as="alternateBounds"/>
                    </mxGeometry>
                </mxCell>
                <mxCell id="15" value="VARCHAR(50)" style="shape=partialRectangle;html=1;whiteSpace=wrap;connectable=0;strokeColor=inherit;overflow=hidden;fillColor=none;top=0;left=0;bottom=0;right=0;pointerEvents=1;" parent="13" vertex="1">
                    <mxGeometry x="120" width="170" height="41" as="geometry">
                        <mxRectangle width="170" height="41" as="alternateBounds"/>
                    </mxGeometry>
                </mxCell>
                <mxCell id="16" value="" style="shape=tableRow;horizontal=0;startSize=0;swimlaneHead=0;swimlaneBody=0;strokeColor=inherit;top=0;left=0;bottom=0;right=0;collapsible=0;dropTarget=0;fillColor=none;points=[[0,0.5],[1,0.5]];portConstraint=eastwest;" parent="6" vertex="1">
                    <mxGeometry y="165" width="290" height="41" as="geometry"/>
                </mxCell>
                <mxCell id="17" value="preco" style="shape=partialRectangle;html=1;whiteSpace=wrap;connectable=0;strokeColor=inherit;overflow=hidden;fillColor=none;top=0;left=0;bottom=0;right=0;pointerEvents=1;" parent="16" vertex="1">
                    <mxGeometry width="120" height="41" as="geometry">
                        <mxRectangle width="120" height="41" as="alternateBounds"/>
                    </mxGeometry>
                </mxCell>
                <mxCell id="18" value="DECIMAL (10,2)" style="shape=partialRectangle;html=1;whiteSpace=wrap;connectable=0;strokeColor=inherit;overflow=hidden;fillColor=none;top=0;left=0;bottom=0;right=0;pointerEvents=1;" parent="16" vertex="1">
                    <mxGeometry x="120" width="170" height="41" as="geometry">
                        <mxRectangle width="170" height="41" as="alternateBounds"/>
                    </mxGeometry>
                </mxCell>
                <mxCell id="19" value="" style="shape=tableRow;horizontal=0;startSize=0;swimlaneHead=0;swimlaneBody=0;strokeColor=inherit;top=0;left=0;bottom=0;right=0;collapsible=0;dropTarget=0;fillColor=none;points=[[0,0.5],[1,0.5]];portConstraint=eastwest;" parent="6" vertex="1">
                    <mxGeometry y="206" width="290" height="43" as="geometry"/>
                </mxCell>
                <mxCell id="20" value="categoria" style="shape=partialRectangle;html=1;whiteSpace=wrap;connectable=0;strokeColor=inherit;overflow=hidden;fillColor=none;top=0;left=0;bottom=0;right=0;pointerEvents=1;" parent="19" vertex="1">
                    <mxGeometry width="120" height="43" as="geometry">
                        <mxRectangle width="120" height="43" as="alternateBounds"/>
                    </mxGeometry>
                </mxCell>
                <mxCell id="21" value="VARCHAR(30)" style="shape=partialRectangle;html=1;whiteSpace=wrap;connectable=0;strokeColor=inherit;overflow=hidden;fillColor=none;top=0;left=0;bottom=0;right=0;pointerEvents=1;" parent="19" vertex="1">
                    <mxGeometry x="120" width="170" height="43" as="geometry">
                        <mxRectangle width="170" height="43" as="alternateBounds"/>
                    </mxGeometry>
                </mxCell>
                <mxCell id="22" value="" style="shape=tableRow;horizontal=0;startSize=0;swimlaneHead=0;swimlaneBody=0;strokeColor=inherit;top=0;left=0;bottom=0;right=0;collapsible=0;dropTarget=0;fillColor=none;points=[[0,0.5],[1,0.5]];portConstraint=eastwest;" parent="6" vertex="1">
                    <mxGeometry y="249" width="290" height="41" as="geometry"/>
                </mxCell>
                <mxCell id="23" value="estoque" style="shape=partialRectangle;html=1;whiteSpace=wrap;connectable=0;strokeColor=inherit;overflow=hidden;fillColor=none;top=0;left=0;bottom=0;right=0;pointerEvents=1;" parent="22" vertex="1">
                    <mxGeometry width="120" height="41" as="geometry">
                        <mxRectangle width="120" height="41" as="alternateBounds"/>
                    </mxGeometry>
                </mxCell>
                <mxCell id="24" value="INT" style="shape=partialRectangle;html=1;whiteSpace=wrap;connectable=0;strokeColor=inherit;overflow=hidden;fillColor=none;top=0;left=0;bottom=0;right=0;pointerEvents=1;" parent="22" vertex="1">
                    <mxGeometry x="120" width="170" height="41" as="geometry">
                        <mxRectangle width="170" height="41" as="alternateBounds"/>
                    </mxGeometry>
                </mxCell>
            </root>
        </mxGraphModel>
    </diagram>
</mxfile>